<svg xmlns="http://www.w3.org/2000/svg" xmlns:xlink="http://www.w3.org/1999/xlink" width="1159px" height="457px" viewBox="0 0 1159 457" version="1.1">
  <title>ESTGV_lmv_color</title>
  <g id="ESTGV_lmv_color" stroke="none" stroke-width="1" fill="none" fill-rule="evenodd">
    <path d="M106.089,1 C47.497,1 0,48.498 0,107.089 C0,165.681 47.497,213.179 106.089,213.179 C164.681,213.179 212.178,165.681 212.178,107.089 C212.178,48.498 164.681,1 106.089,1 M397.6215,58.8633 L397.730511,6.1763 C397.7335,5.0793 397.1225,4.1943 396.2775,3.7353 C395.4605,3.2293 394.3895,3.1363 393.4375,3.6823 L347.7255,29.8823 C344.3515,31.8153 341.5475,34.6063 339.5975,37.9723 L306.2765,95.4713 L306.3315,95.5043 L249.8275,192.5463 C249.8075,192.5793 249.7915,192.6133 249.7725,192.6473 L242.0595,205.8943 C240.9825,207.7443 242.3185,210.063301 244.4595,210.063301 L259.9005,210.0433 L276.4565,210.0213 L305.4945,209.9843 L310.5895,209.9783 C312.1365,209.9763 313.5655,209.1533 314.3445,207.8163 L361.1835,127.3643 L394.6205,69.9323 C396.5785,66.5723 397.6135,62.7533 397.6215,58.8633 M486.1355,211.0818 C494.6405,211.0818 500.4655,207.9358 504.0775,203.1598 L504.0775,210.1498 L521.9025,210.1498 L521.9025,126.2658 L504.0775,126.2658 L504.0775,158.8878 C500.9315,154.2268 494.5235,150.9648 486.1355,150.9648 C471.6885,150.9648 460.3875,162.4988 460.3875,180.9068 C460.3875,199.1978 471.8055,211.0818 486.1355,211.0818 L486.1355,211.0818 Z M478.5625,180.9068 C478.5625,171.5868 484.6205,166.5768 491.4945,166.5768 C498.1355,166.5768 504.1935,171.7028 504.1935,180.9068 C504.1935,190.2278 498.1355,195.3538 491.4945,195.3538 C484.6205,195.3538 478.5625,190.1108 478.5625,180.9068 L478.5625,180.9068 Z M560.3145,211.0818 C574.8775,211.0818 585.2465,202.8098 588.0425,190.6938 L569.6345,190.6938 C568.2365,194.4218 564.7415,196.4018 559.7315,196.4018 C554.0235,196.4018 548.6635,192.7908 548.0815,185.2178 L588.5085,185.2178 C588.7415,183.3538 588.8585,181.6058 588.8585,179.9748 C588.8585,162.1498 576.8585,150.9648 559.7315,150.9648 C542.4895,150.9648 530.3725,162.3828 530.3725,180.9068 C530.3725,199.4308 543.1885,211.0818 560.3145,211.0818 L560.3145,211.0818 Z M548.1975,174.1498 C549.2465,167.7418 553.6735,164.5958 559.6155,164.5958 C565.5575,164.5958 570.5665,167.8578 570.5665,174.1498 L548.1975,174.1498 Z M642.5665,210.1498 L665.1685,210.1498 L694.1785,128.0138 L674.2565,128.0138 L653.8675,189.8778 L633.4795,128.0138 L613.4405,128.0138 L642.5665,210.1498 Z M699.3045,210.1498 L717.1295,210.1498 L717.1295,151.8968 L699.3045,151.8968 L699.3045,210.1498 Z M697.9065,134.4208 C697.9065,140.2468 702.4505,144.9068 708.2755,144.9068 C713.9845,144.9068 718.6445,140.2468 718.6445,134.4208 C718.6445,128.7128 713.9845,124.0518 708.2755,124.0518 C702.4505,124.0518 697.9065,128.7128 697.9065,134.4208 L697.9065,134.4208 Z M724.8645,191.0428 C725.6805,202.2278 736.1655,211.0818 751.7775,211.0818 C766.3405,211.0818 775.3115,203.2758 775.3115,193.1398 C775.0785,171.4698 743.5055,177.4118 743.5055,168.6738 C743.5055,165.8778 745.8355,164.2468 749.9135,164.2468 C754.9225,164.2468 758.0685,166.8098 758.5345,170.7708 L775.0785,170.7708 C773.9135,159.3538 765.5245,150.9648 750.4955,150.9648 C735.2335,150.9648 726.7285,159.1208 726.7285,169.0238 C726.7285,190.4608 758.5345,184.4018 758.5345,193.0238 C758.5345,195.7028 756.0875,197.7998 751.5445,197.7998 C746.6515,197.7998 742.9225,195.1208 742.5735,191.0428 L724.8645,191.0428 Z M810.1815,211.0818 C824.7445,211.0818 835.1135,202.8098 837.9095,190.6938 L819.5015,190.6938 C818.1035,194.4218 814.6085,196.4018 809.5985,196.4018 C803.8895,196.4018 798.5305,192.7908 797.9475,185.2178 L838.3755,185.2178 C838.6085,183.3538 838.7245,181.6058 838.7245,179.9748 C838.7245,162.1498 826.7245,150.9648 809.5985,150.9648 C792.3555,150.9648 780.2395,162.3828 780.2395,180.9068 C780.2395,199.4308 793.0545,211.0818 810.1815,211.0818 L810.1815,211.0818 Z M798.0645,174.1498 C799.1135,167.7418 803.5405,164.5958 809.4825,164.5958 C815.4235,164.5958 820.4335,167.8578 820.4335,174.1498 L798.0645,174.1498 Z M846.5655,151.8968 L846.5655,186.0328 C846.5655,201.7618 854.9535,211.0818 868.2355,211.0818 C876.2745,211.0818 882.2155,208.0528 885.5945,203.6258 L885.5945,210.1498 L903.4195,210.1498 L903.4195,151.8968 L885.5945,151.8968 L885.5945,183.7028 C885.5945,191.6258 881.4005,195.9358 874.6435,195.9358 C867.8855,195.9358 864.3905,191.6258 864.3905,183.7028 L864.3905,151.8968 L846.5655,151.8968 Z M465.7471,107.2982 L483.9221,107.2982 L483.9221,77.8222 L496.2711,77.8222 C517.2421,77.8222 524.6991,64.5412 524.6991,51.6082 C524.6991,37.2782 516.4271,25.1622 496.2711,25.1622 L465.7471,25.1622 L465.7471,107.2982 Z M494.7571,40.1912 C502.6791,40.1912 506.0581,44.7352 506.0581,51.0262 C506.0581,57.3172 502.6791,61.8612 494.7571,61.8612 L483.9221,61.8612 L483.9221,40.1912 L494.7571,40.1912 Z M525.3621,78.0552 C525.3621,96.5802 538.2941,108.2302 555.4201,108.2302 C572.6631,108.2302 585.9451,96.5802 585.9451,78.0552 C585.9451,59.6472 572.7801,48.1132 555.6531,48.1132 C538.6441,48.1132 525.3621,59.6472 525.3621,78.0552 L525.3621,78.0552 Z M555.6531,63.6082 C561.9451,63.6082 567.7701,68.1522 567.7701,78.0552 C567.7701,87.9582 561.8281,92.6182 555.4201,92.6182 C549.0131,92.6182 543.5371,87.9582 543.5371,78.0552 C543.5371,68.1522 549.2461,63.6082 555.6531,63.6082 L555.6531,63.6082 Z M594.5991,107.2982 L612.4241,107.2982 L612.4241,23.4142 L594.5991,23.4142 L594.5991,107.2982 Z M625.5541,107.2982 L643.3791,107.2982 L643.3791,49.0452 L625.5541,49.0452 L625.5541,107.2982 Z M624.1551,31.5692 C624.1551,37.3952 628.6991,42.0552 634.5241,42.0552 C640.2331,42.0552 644.8931,37.3952 644.8931,31.5692 C644.8931,25.8612 640.2331,21.2002 634.5241,21.2002 C628.6991,21.2002 624.1551,25.8612 624.1551,31.5692 L624.1551,31.5692 Z M660.1311,63.8412 L660.1311,87.0262 C660.1311,102.1722 668.6361,107.2982 680.6361,107.2982 L691.4711,107.2982 L691.4711,92.1522 L683.4321,92.1522 C679.4711,92.1522 677.9561,90.6382 677.9561,87.2592 L677.9561,63.8412 L691.7041,63.8412 L691.7041,49.0452 L677.9561,49.0452 L677.9561,31.6862 L661.2961,31.6862 L661.2961,40.1912 C661.2961,45.5502 657.4511,49.0452 651.9761,49.0452 L650.1121,49.0452 L650.1121,63.8412 L660.1311,63.8412 Z M732.8881,42.8712 L743.1401,23.4142 L726.5961,23.4142 L717.5091,42.8712 L732.8881,42.8712 Z M755.8391,77.1232 C755.8391,59.4142 743.8391,48.1132 726.8291,48.1132 C709.4701,48.1132 697.3541,59.6472 697.3541,78.0552 C697.3541,96.5802 710.2861,108.2302 727.4121,108.2302 C741.9751,108.2302 752.3441,99.9582 755.1401,87.9582 L736.7321,87.9582 C735.3341,91.5702 731.8391,93.5502 726.8291,93.5502 C721.0041,93.5502 715.7611,90.0552 715.1791,82.3662 L755.6061,82.3662 C755.8391,80.6182 755.8391,78.8712 755.8391,77.1232 L755.8391,77.1232 Z M737.5481,71.4142 L715.2951,71.4142 C716.2271,64.8902 720.7711,61.8612 726.5961,61.8612 C732.5381,61.8612 737.5481,65.0072 737.5481,71.4142 L737.5481,71.4142 Z M790.5341,108.2302 C805.0971,108.2302 815.4661,99.6092 818.4951,86.2112 L799.5051,86.2112 C797.8741,90.4052 795.0781,92.8512 790.1841,92.8512 C783.7771,92.8512 778.8831,87.8422 778.8831,78.0552 C778.8831,68.3852 783.7771,63.3752 790.1841,63.3752 C795.0781,63.3752 797.9901,65.9392 799.5051,70.0162 L818.4951,70.0162 C815.4661,56.1522 805.0971,48.1132 790.5341,48.1132 C773.4081,48.1132 760.7091,59.7642 760.7091,78.0552 C760.7091,96.5802 773.4081,108.2302 790.5341,108.2302 L790.5341,108.2302 Z M826.3351,49.0452 L826.3351,107.2982 L844.2771,107.2982 L844.2771,75.6092 C844.2771,67.6862 848.3551,63.2592 855.2291,63.2592 C861.9861,63.2592 865.4811,67.6862 865.4811,75.6092 L865.4811,107.2982 L883.1901,107.2982 L883.1901,73.1622 C883.1901,57.5502 874.9181,48.1132 861.6361,48.1132 C853.5981,48.1132 847.6561,51.2592 844.2771,55.5702 L844.2771,49.0452 L826.3351,49.0452 Z M894.5841,107.2982 L912.4091,107.2982 L912.4091,49.0452 L894.5841,49.0452 L894.5841,107.2982 Z M893.1861,31.5692 C893.1861,37.3952 897.7301,42.0552 903.5551,42.0552 C909.2641,42.0552 913.9241,37.3952 913.9241,31.5692 C913.9241,25.8612 909.2641,21.2002 903.5551,21.2002 C897.7301,21.2002 893.1861,25.8612 893.1861,31.5692 L893.1861,31.5692 Z M950.2491,108.2302 C964.8121,108.2302 975.1811,99.6092 978.2101,86.2112 L959.2201,86.2112 C957.5891,90.4052 954.7931,92.8512 949.8991,92.8512 C943.4911,92.8512 938.5981,87.8422 938.5981,78.0552 C938.5981,68.3852 943.4911,63.3752 949.8991,63.3752 C954.7931,63.3752 957.7051,65.9392 959.2201,70.0162 L978.2101,70.0162 C975.1811,56.1522 964.8121,48.1132 950.2491,48.1132 C933.1231,48.1132 920.4231,59.7642 920.4231,78.0552 C920.4231,96.5802 933.1231,108.2302 950.2491,108.2302 L950.2491,108.2302 Z M982.5671,78.0552 C982.5671,96.5802 995.4991,108.2302 1012.6251,108.2302 C1029.8681,108.2302 1043.1501,96.5802 1043.1501,78.0552 C1043.1501,59.6472 1029.9841,48.1132 1012.8581,48.1132 C995.8481,48.1132 982.5671,59.6472 982.5671,78.0552 L982.5671,78.0552 Z M1012.8581,63.6082 C1019.1491,63.6082 1024.9751,68.1522 1024.9751,78.0552 C1024.9751,87.9582 1019.0331,92.6182 1012.6251,92.6182 C1006.2171,92.6182 1000.7421,87.9582 1000.7421,78.0552 C1000.7421,68.1522 1006.4501,63.6082 1012.8581,63.6082 L1012.8581,63.6082 Z" id="PV_logotipo_medio-vector" fill="#F42F39"/>
    <path d="M490.39896,456.525319 C503.118643,456.525319 511.453468,448.959642 514.195802,439.309359 L504.218452,439.309359 C502.241672,445.009675 497.637571,448.409737 490.39896,448.409737 C482.721864,448.409737 475.044768,443.255732 474.387039,432.617059 L514.964949,432.617059 C515.184192,431.193777 515.184192,429.109172 515.184192,427.135986 C515.184192,413.974223 505.753153,401.693025 490.39896,401.693025 C474.936943,401.693025 464.736757,413.316494 464.736757,429.109172 C464.736757,445.121094 475.264011,456.525319 490.39896,456.525319 L490.39896,456.525319 Z M474.498458,424.72072 C475.594672,415.070438 482.064135,409.808608 489.960474,409.808608 C498.841609,409.808608 505.53391,415.401099 505.641734,424.72072 L474.498458,424.72072 Z M545.339078,417.047218 C545.339078,440.513398 561.570242,456.525319 584.382288,456.525319 C600.171372,456.525319 610.810045,446.763618 612.563988,440.294155 L612.563988,455.648348 L620.790989,455.648348 L620.790989,414.085641 L581.201469,413.974223 L581.201469,422.201223 L610.810045,422.201223 C610.482978,433.713274 602.913706,447.421347 584.27087,447.421347 C567.712638,447.421347 555.539265,435.797878 555.539265,417.047218 C555.539265,398.181545 568.370367,386.669495 584.928598,386.669495 C595.897932,386.669495 604.448406,391.931325 608.72544,401.035297 L619.914017,401.035297 C614.102283,386.011766 601.490424,377.457698 584.928598,377.457698 C562.8857,377.457698 545.339078,393.466025 545.339078,417.047218 L545.339078,417.047218 Z M656.980446,456.525319 C669.70013,456.525319 678.034955,448.959642 680.777288,439.309359 L670.796344,439.309359 C668.823158,445.009675 664.219057,448.409737 656.980446,448.409737 C649.30335,448.409737 641.626254,443.255732 640.968525,432.617059 L681.542841,432.617059 C681.765678,431.193777 681.765678,429.109172 681.765678,427.135986 C681.765678,413.974223 672.331045,401.693025 656.980446,401.693025 C641.514836,401.693025 631.318243,413.316494 631.318243,429.109172 C631.318243,445.121094 641.845497,456.525319 656.980446,456.525319 L656.980446,456.525319 Z M641.07635,424.72072 C642.176158,415.070438 648.645622,409.808608 656.541961,409.808608 C665.423096,409.808608 672.111802,415.401099 672.22322,424.72072 L641.07635,424.72072 Z M688.321401,439.967088 C688.867711,449.725195 697.641022,456.525319 710.033638,456.525319 C721.657107,456.525319 729.334203,449.836613 729.334203,441.171127 C729.334203,421.543495 698.298751,428.340025 698.298751,416.385895 C698.298751,412.108861 702.029474,409.370122 708.498938,409.370122 C715.626129,409.370122 719.576096,412.989427 720.014582,418.362675 L728.895717,418.362675 C728.237988,407.943246 720.453068,401.693025 708.829599,401.693025 C696.983293,401.693025 689.306197,408.273907 689.306197,416.385895 C689.306197,436.12854 720.560892,429.328415 720.560892,441.171127 C720.560892,445.559579 716.722344,448.62898 709.814395,448.62898 C702.356542,448.62898 697.752441,445.121094 697.313955,439.967088 L688.321401,439.967088 Z M743.700005,410.685579 L743.700005,443.255732 C743.700005,450.602166 747.211486,455.648348 756.092621,455.648348 L766.619875,455.648348 L766.619875,447.202104 L759.823345,447.202104 C754.777164,447.202104 753.350288,445.886647 753.350288,441.063303 L753.350288,410.685579 L767.16978,410.685579 L767.16978,402.569997 L753.350288,402.569997 L753.350288,387.215805 L744.138491,387.215805 L744.138491,396.758263 C744.138491,400.596811 741.507576,402.569997 738.326757,402.569997 L734.599627,402.569997 L734.599627,410.685579 L743.700005,410.685579 Z M791.613568,456.525319 C799.72915,456.525319 806.417856,452.686771 809.271608,447.64059 L809.271608,455.648348 L818.264161,455.648348 L818.264161,419.678133 C818.264161,407.285517 810.148579,401.693025 797.425302,401.693025 C784.374957,401.693025 776.697861,409.258703 776.697861,420.224443 L785.913252,420.224443 C785.913252,413.535737 789.967449,409.697189 797.317478,409.697189 C804.663912,409.697189 809.160189,412.439523 809.160189,418.4705 C809.160189,420.99359 807.406246,422.747534 804.556088,423.18602 L789.528963,425.378449 C781.194138,426.6975 774.286189,431.082359 774.286189,440.732641 C774.286189,449.944438 781.194138,456.525319 791.613568,456.525319 L791.613568,456.525319 Z M783.278743,440.186331 C783.278743,435.14015 787.009466,432.836302 792.601958,432.070749 C800.825364,430.755291 809.052365,429.547658 809.052365,429.547658 L809.052365,432.947721 C809.052365,442.92507 800.71754,448.62898 792.271296,448.62898 C786.790223,448.62898 783.278743,445.340336 783.278743,440.186331 L783.278743,440.186331 Z M778.563223,395.662048 L784.924862,395.662048 C785.471172,392.042743 787.555777,390.2888 790.190286,390.2888 C795.01363,390.2888 797.425302,395.881291 804.006184,395.881291 C810.367822,395.881291 815.191166,391.492839 816.179557,383.269432 L809.817918,383.269432 C809.379432,386.777319 807.187003,388.531262 804.556088,388.531262 C799.509907,388.531262 797.098235,382.938771 790.628772,382.938771 C784.374957,382.938771 779.770856,387.215805 778.563223,395.662048 L778.563223,395.662048 Z M827.78146,428.997754 C827.78146,444.901851 839.077862,456.525319 854.101393,456.525319 C869.124924,456.525319 880.640568,445.121094 880.640568,428.997754 C880.640568,412.878008 869.124924,401.693025 854.101393,401.693025 C839.077862,401.693025 827.78146,412.878008 827.78146,428.997754 L827.78146,428.997754 Z M854.101393,410.135675 C862.763285,410.135675 870.771043,417.047218 870.771043,428.997754 C870.771043,440.951884 862.874704,447.971251 854.101393,447.971251 C845.328082,447.971251 837.650986,441.282545 837.650986,428.997754 C837.650986,416.716556 845.216663,410.135675 854.101393,410.135675 L854.101393,410.135675 Z M936.019172,455.648348 L947.865478,455.648348 L977.035568,378.33467 L966.177653,378.33467 L942.053743,444.790432 L917.92624,378.33467 L906.9605,378.33467 L936.019172,455.648348 Z M985.456653,455.648348 L995.106935,455.648348 L995.106935,402.569997 L985.456653,402.569997 L985.456653,455.648348 Z M983.702709,382.281042 C983.702709,386.11959 986.552867,389.081167 990.283591,389.081167 C993.902896,389.081167 996.864472,386.11959 996.864472,382.281042 C996.864472,378.553913 993.902896,375.592336 990.283591,375.592336 C986.552867,375.592336 983.702709,378.553913 983.702709,382.281042 L983.702709,382.281042 Z M1005.06631,439.967088 C1005.61262,449.725195 1014.38594,456.525319 1026.77855,456.525319 C1038.40202,456.525319 1046.07912,449.836613 1046.07912,441.171127 C1046.07912,421.543495 1015.04366,428.340025 1015.04366,416.385895 C1015.04366,412.108861 1018.77439,409.370122 1025.24385,409.370122 C1032.37104,409.370122 1036.32101,412.989427 1036.75949,418.362675 L1045.64063,418.362675 C1044.9829,407.943246 1037.19798,401.693025 1025.57092,401.693025 C1013.72821,401.693025 1006.05111,408.273907 1006.05111,416.385895 C1006.05111,436.12854 1037.30581,429.328415 1037.30581,441.171127 C1037.30581,445.559579 1033.46726,448.62898 1026.55931,448.62898 C1019.10145,448.62898 1014.49735,445.121094 1014.05887,439.967088 L1005.06631,439.967088 Z M1079.07697,456.525319 C1091.80025,456.525319 1100.13507,448.959642 1102.87381,439.309359 L1092.89646,439.309359 C1090.92328,445.009675 1086.31558,448.409737 1079.07697,448.409737 C1071.39988,448.409737 1063.72637,443.255732 1063.06505,432.617059 L1103.64296,432.617059 C1103.8622,431.193777 1103.8622,429.109172 1103.8622,427.135986 C1103.8622,413.974223 1094.43116,401.693025 1079.07697,401.693025 C1063.61495,401.693025 1053.41477,413.316494 1053.41477,429.109172 C1053.41477,445.121094 1063.94562,456.525319 1079.07697,456.525319 L1079.07697,456.525319 Z M1063.17647,424.72072 C1064.27268,415.070438 1070.74215,409.808608 1078.63849,409.808608 C1087.52322,409.808608 1094.21192,415.401099 1094.32334,424.72072 L1063.17647,424.72072 Z M1114.14865,402.569997 L1114.14865,433.824692 C1114.14865,448.959642 1121.27584,456.525319 1133.01073,456.525319 C1140.46858,456.525319 1146.38814,453.782986 1149.46114,448.409737 L1149.46114,455.648348 L1159,455.648348 L1159,402.569997 L1149.46114,402.569997 L1149.46114,431.41302 C1149.46114,442.598003 1144.30713,448.409737 1135.31458,448.409737 C1126.42985,448.409737 1123.57969,442.267342 1123.57969,432.070749 L1123.57969,402.569997 L1114.14865,402.569997 Z M461.337413,273.435201 L461.337413,281.87785 L482.941826,281.87785 L482.941826,350.748879 L493.142012,350.748879 L493.142012,281.87785 L514.527182,281.87785 L514.527182,273.435201 L461.337413,273.435201 Z M536.598834,351.625851 C549.322111,351.625851 557.656936,344.060173 560.39927,334.409891 L550.418326,334.409891 C548.445139,340.1138 543.837444,343.510269 536.598834,343.510269 C528.925332,343.510269 521.248235,338.356263 520.590507,327.721184 L561.164823,327.721184 C561.384066,326.294308 561.384066,324.209704 561.384066,322.236517 C561.384066,309.078348 551.953026,296.793557 536.598834,296.793557 C521.136817,296.793557 510.93663,308.417025 510.93663,324.209704 C510.93663,340.221625 521.467478,351.625851 536.598834,351.625851 L536.598834,351.625851 Z M520.698331,319.824845 C521.794546,310.174563 528.264009,304.909139 536.160348,304.909139 C545.045077,304.909139 551.733783,310.50163 551.845202,319.824845 L520.698331,319.824845 Z M594.130331,351.625851 C606.850015,351.625851 615.623325,344.279416 618.365659,333.752162 L608.165472,333.752162 C606.084462,339.675315 601.149699,343.621687 594.018913,343.621687 C584.36863,343.621687 578.226235,334.517715 578.226235,324.209704 C578.226235,313.793868 584.149387,305.128382 594.018913,305.128382 C601.257523,305.128382 606.192286,309.078348 608.165472,314.778664 L618.365659,314.778664 C615.623325,303.701506 606.522947,296.793557 594.130331,296.793557 C578.995382,296.793557 568.468128,308.197783 568.468128,324.209704 C568.468128,340.221625 578.995382,351.625851 594.130331,351.625851 L594.130331,351.625851 Z M628.192055,297.670528 L628.192055,350.748879 L637.730918,350.748879 L637.730918,322.017275 C637.730918,310.832292 642.7771,305.020557 651.769653,305.020557 C660.650789,305.020557 663.612365,311.159359 663.612365,321.359546 L663.612365,350.748879 L673.043405,350.748879 L673.043405,319.494184 C673.043405,304.362829 665.916213,296.793557 654.073501,296.793557 C646.723472,296.793557 640.692495,299.53589 637.730918,305.020557 L637.730918,297.670528 L628.192055,297.670528 Z M682.8698,324.101879 C682.8698,340.002382 694.166202,351.625851 709.189732,351.625851 C724.213263,351.625851 735.728908,340.221625 735.728908,324.101879 C735.728908,307.97854 724.213263,296.793557 709.189732,296.793557 C694.166202,296.793557 682.8698,307.97854 682.8698,324.101879 L682.8698,324.101879 Z M709.189732,305.2398 C717.851625,305.2398 725.859382,312.147749 725.859382,324.101879 C725.859382,336.056009 717.963043,343.071783 709.189732,343.071783 C700.416422,343.071783 692.739325,336.383077 692.739325,324.101879 C692.739325,311.817088 700.305003,305.2398 709.189732,305.2398 L709.189732,305.2398 Z M746.41071,350.748879 L756.060993,350.748879 L756.060993,271.789082 L746.41071,271.789082 L746.41071,350.748879 Z M766.620594,324.101879 C766.620594,340.002382 777.913401,351.625851 792.940526,351.625851 C807.964057,351.625851 819.479702,340.221625 819.479702,324.101879 C819.479702,307.97854 807.964057,296.793557 792.940526,296.793557 C777.913401,296.793557 766.620594,307.97854 766.620594,324.101879 L766.620594,324.101879 Z M792.940526,305.2398 C801.602419,305.2398 809.610176,312.147749 809.610176,324.101879 C809.610176,336.056009 801.713837,343.071783 792.940526,343.071783 C784.167216,343.071783 776.490119,336.383077 776.490119,324.101879 C776.490119,311.817088 784.055797,305.2398 792.940526,305.2398 L792.940526,305.2398 Z M826.826136,321.905856 C826.826136,335.944591 836.365,347.240992 850.515154,347.240992 C859.396289,347.240992 865.100199,343.183201 867.842532,338.467682 L867.842532,347.56806 C867.842532,358.864461 861.588718,364.129885 852.269097,364.129885 C843.495786,364.129885 838.668848,359.741433 836.803486,351.956512 L827.483865,351.956512 C829.349227,364.129885 838.668848,372.46471 852.269097,372.46471 C867.842532,372.46471 877.273572,362.814428 877.273572,347.56806 L877.273572,297.670528 L867.842532,297.670528 L867.842532,305.459043 C865.319442,300.851348 859.615532,296.793557 850.515154,296.793557 C836.365,296.793557 826.826136,307.97854 826.826136,321.905856 L826.826136,321.905856 Z M836.365,321.905856 C836.365,311.817088 842.726639,304.801314 852.269097,304.801314 C861.261651,304.801314 868.061775,311.928506 868.061775,322.017275 C868.061775,331.998218 861.369475,339.233235 852.269097,339.233235 C842.726639,339.233235 836.365,331.998218 836.365,321.905856 L836.365,321.905856 Z M890.870227,350.748879 L900.520509,350.748879 L900.520509,297.670528 L890.870227,297.670528 L890.870227,350.748879 Z M889.116283,277.381573 C889.116283,281.220121 891.966441,284.181698 895.697165,284.181698 C899.312876,284.181698 902.274453,281.220121 902.274453,277.381573 C902.274453,273.654444 899.312876,270.692867 895.697165,270.692867 C891.966441,270.692867 889.116283,273.654444 889.116283,277.381573 L889.116283,277.381573 Z M928.583603,351.625851 C936.699185,351.625851 943.387891,347.787303 946.238048,342.744715 L946.238048,350.748879 L955.230602,350.748879 L955.230602,314.778664 C955.230602,302.497467 947.118614,296.793557 934.395337,296.793557 C921.344992,296.793557 913.667896,304.470653 913.667896,315.328569 L922.879693,315.328569 C922.879693,308.636268 926.937484,304.909139 934.287512,304.909139 C941.633947,304.909139 946.130224,307.540054 946.130224,313.574625 C946.130224,316.20554 944.376281,317.959484 941.522529,318.290145 L926.498998,320.590399 C918.164173,321.905856 911.256224,326.294308 911.256224,335.944591 C911.256224,345.048563 918.164173,351.625851 928.583603,351.625851 L928.583603,351.625851 Z M929.571993,327.17128 C937.795399,325.855823 946.018806,324.64819 946.018806,324.64819 L946.018806,328.048252 C946.018806,338.029196 937.683981,343.729512 929.241331,343.729512 C923.756664,343.729512 920.248778,340.440868 920.248778,335.286862 C920.248778,330.240681 923.975907,328.048252 929.571993,327.17128 L929.571993,327.17128 Z" id="ESTGV" fill="#F42F39"/>
  </g>
</svg>